{"asset":{"version":"2.0","generator":"Unity 6000.0.0b13 glTFast 6.4.0"},"nodes":[{"name":"Art","mesh":0,"translation":[0,0,0.125],"rotation":[0.7071068,0,0,0.7071068],"scale":[2.95,1,4.20000029]},{"name":"Bevel","mesh":1},{"name":"BottomMat","children":[1],"mesh":2,"translation":[14.75,-21,0]},{"name":"Bevel","mesh":3},{"name":"Mat","children":[3],"mesh":4,"translation":[14.75,-21,0]},{"name":"Leg1","mesh":5,"translation":[18,-24.25,0.125]},{"name":"Leg2","mesh":6,"translation":[-18,-24.25,0.125],"rotation":[0,0,-0.7071068,0.7071068]},{"name":"Leg3","mesh":7,"translation":[-18,24.25,0.125],"rotation":[0,0,-1,-4.371139E-08]},{"name":"Leg4","mesh":8,"translation":[18,24.25,0.125],"rotation":[0,0,-0.7071068,-0.7071068]},{"name":"Frame","children":[5,6,7,8]}],"extensionsRequired":["KHR_texture_transform"],"extensionsUsed":["KHR_texture_transform"],"buffers":[{"uri":"gltfast_export.bin","byteLength":13476}],"bufferViews":[{"buffer":0,"byteLength":12},{"buffer":0,"byteLength":48,"byteOffset":12},{"buffer":0,"byteLength":60,"byteOffset":60},{"buffer":0,"byteLength":48,"byteOffset":120},{"buffer":0,"byteLength":60,"byteOffset":168},{"buffer":0,"byteLength":96,"byteOffset":228},{"buffer":0,"byteLength":96,"byteOffset":324},{"buffer":0,"byteLength":96,"byteOffset":420},{"buffer":0,"byteLength":96,"byteOffset":516},{"buffer":0,"byteLength":768,"byteOffset":612,"byteStride":32},{"buffer":0,"byteLength":960,"byteOffset":1380,"byteStride":32},{"buffer":0,"byteLength":768,"byteOffset":2340,"byteStride":32},{"buffer":0,"byteLength":960,"byteOffset":3108,"byteStride":32},{"buffer":0,"byteLength":192,"byteOffset":4068,"byteStride":48},{"buffer":0,"byteLength":2304,"byteOffset":4260,"byteStride":48},{"buffer":0,"byteLength":2304,"byteOffset":6564,"byteStride":48},{"buffer":0,"byteLength":2304,"byteOffset":8868,"byteStride":48},{"buffer":0,"byteLength":2304,"byteOffset":11172,"byteStride":48}],"accessors":[{"bufferView":13,"componentType":5126,"count":4,"type":"VEC3","max":[5.000008,0,5.000008],"min":[-5.000008,0,-5.000008]},{"bufferView":13,"componentType":5126,"count":4,"type":"VEC3","byteOffset":12},{"bufferView":13,"componentType":5126,"count":4,"type":"VEC4","byteOffset":24},{"bufferView":13,"componentType":5126,"count":4,"type":"VEC2","byteOffset":40},{"bufferView":0,"componentType":5123,"count":6,"type":"SCALAR"},{"bufferView":9,"componentType":5126,"count":24,"type":"VEC3","max":[0.0625,42.0625,0.0625],"min":[-29.5625,-0.0625,0]},{"bufferView":9,"componentType":5126,"count":24,"type":"VEC3","byteOffset":12},{"bufferView":9,"componentType":5126,"count":24,"type":"VEC2","byteOffset":24},{"bufferView":1,"componentType":5123,"count":24,"type":"SCALAR"},{"bufferView":10,"componentType":5126,"count":30,"type":"VEC3","max":[3,45,0.0625],"min":[-32.5,-3,0.0625]},{"bufferView":10,"componentType":5126,"count":30,"type":"VEC3","byteOffset":12},{"bufferView":10,"componentType":5126,"count":30,"type":"VEC2","byteOffset":24},{"bufferView":2,"componentType":5123,"count":30,"type":"SCALAR"},{"bufferView":11,"componentType":5126,"count":24,"type":"VEC3","max":[0.5625,42.5625,0.125],"min":[-30.0625,-0.5625,0.0625]},{"bufferView":11,"componentType":5126,"count":24,"type":"VEC3","byteOffset":12},{"bufferView":11,"componentType":5126,"count":24,"type":"VEC2","byteOffset":24},{"bufferView":3,"componentType":5123,"count":24,"type":"SCALAR"},{"bufferView":12,"componentType":5126,"count":30,"type":"VEC3","max":[3,45,0.125],"min":[-32.5,-3,0]},{"bufferView":12,"componentType":5126,"count":30,"type":"VEC3","byteOffset":12},{"bufferView":12,"componentType":5126,"count":30,"type":"VEC2","byteOffset":24},{"bufferView":4,"componentType":5123,"count":30,"type":"SCALAR"},{"bufferView":14,"componentType":5126,"count":48,"type":"VEC3","max":[0.6800003,0.25,0.99999994],"min":[-36.68,-0.6799999,-1.25]},{"bufferView":14,"componentType":5126,"count":48,"type":"VEC3","byteOffset":12},{"bufferView":14,"componentType":5126,"count":48,"type":"VEC4","byteOffset":24},{"bufferView":14,"componentType":5126,"count":48,"type":"VEC2","byteOffset":40},{"bufferView":5,"componentType":5123,"count":48,"type":"SCALAR"},{"bufferView":15,"componentType":5126,"count":48,"type":"VEC3","max":[0.6800003,0.25,0.99999994],"min":[-49.18,-0.6799999,-1.25]},{"bufferView":15,"componentType":5126,"count":48,"type":"VEC3","byteOffset":12},{"bufferView":15,"componentType":5126,"count":48,"type":"VEC4","byteOffset":24},{"bufferView":15,"componentType":5126,"count":48,"type":"VEC2","byteOffset":40},{"bufferView":6,"componentType":5123,"count":48,"type":"SCALAR"},{"bufferView":16,"componentType":5126,"count":48,"type":"VEC3","max":[0.6800003,0.25,0.99999994],"min":[-36.68,-0.6799999,-1.25]},{"bufferView":16,"componentType":5126,"count":48,"type":"VEC3","byteOffset":12},{"bufferView":16,"componentType":5126,"count":48,"type":"VEC4","byteOffset":24},{"bufferView":16,"componentType":5126,"count":48,"type":"VEC2","byteOffset":40},{"bufferView":7,"componentType":5123,"count":48,"type":"SCALAR"},{"bufferView":17,"componentType":5126,"count":48,"type":"VEC3","max":[0.6800003,0.25,0.99999994],"min":[-49.18,-0.6799999,-1.25]},{"bufferView":17,"componentType":5126,"count":48,"type":"VEC3","byteOffset":12},{"bufferView":17,"componentType":5126,"count":48,"type":"VEC4","byteOffset":24},{"bufferView":17,"componentType":5126,"count":48,"type":"VEC2","byteOffset":40},{"bufferView":8,"componentType":5123,"count":48,"type":"SCALAR"}],"images":[{"name":"texture.png","uri":"texture.png","mimeType":"image/png"},{"name":"white.jpg","uri":"white.jpg","mimeType":"image/jpeg"},{"name":"whiteORM.jpg","uri":"whiteORM.jpg","mimeType":"image/jpeg"},{"name":"texture.png","uri":"texture_0.png","mimeType":"image/png"},{"name":"B12002L.jpg","uri":"B12002L.jpg","mimeType":"image/jpeg"},{"name":"B12002LORM.jpg","uri":"B12002LORM.jpg","mimeType":"image/jpeg"},{"name":"texture.png","uri":"texture_1.png","mimeType":"image/png"},{"name":"B12002L.jpg","uri":"B12002L_0.jpg","mimeType":"image/jpeg"},{"name":"B12002LORM.jpg","uri":"B12002LORM_0.jpg","mimeType":"image/jpeg"},{"name":"ST32055.jpg","uri":"ST32055.jpg","mimeType":"image/jpeg"},{"name":"ST32055ORM.jpg","uri":"ST32055ORM.jpg","mimeType":"image/jpeg"},{"name":"ST32055.jpg","uri":"ST32055_0.jpg","mimeType":"image/jpeg"},{"name":"ST32055ORM.jpg","uri":"ST32055ORM_0.jpg","mimeType":"image/jpeg"},{"name":"ST32055.jpg","uri":"ST32055_1.jpg","mimeType":"image/jpeg"},{"name":"ST32055ORM.jpg","uri":"ST32055ORM_1.jpg","mimeType":"image/jpeg"},{"name":"ST32055.jpg","uri":"ST32055_2.jpg","mimeType":"image/jpeg"},{"name":"ST32055ORM.jpg","uri":"ST32055ORM_2.jpg","mimeType":"image/jpeg"}],"materials":[{"name":"ArtImage (Instance)","pbrMetallicRoughness":{"metallicFactor":0,"baseColorTexture":{"index":0}}},{"name":"MatMaterial (Instance)","pbrMetallicRoughness":{"metallicFactor":0.75,"roughnessFactor":0.06,"baseColorTexture":{"index":1,"extensions":{"KHR_texture_transform":{"offset":[0,0],"scale":[0.1,1]}}},"metallicRoughnessTexture":{"index":2,"extensions":{"KHR_texture_transform":{"offset":[0,0],"scale":[0.1,1]}}}}},{"name":"MatMaterial (Instance)","pbrMetallicRoughness":{"metallicFactor":0,"roughnessFactor":0,"baseColorTexture":{"index":4,"extensions":{"KHR_texture_transform":{"offset":[0,0.6191232],"scale":[0.28169015,0.3808768]}}},"metallicRoughnessTexture":{"index":5,"extensions":{"KHR_texture_transform":{"offset":[0,0.6191232],"scale":[0.28169015,0.3808768]}}}},"normalTexture":{"index":3}},{"name":"MatMaterial (Instance)","pbrMetallicRoughness":{"metallicFactor":0.75,"roughnessFactor":0.06,"baseColorTexture":{"index":1,"extensions":{"KHR_texture_transform":{"offset":[0,0],"scale":[0.1,1]}}},"metallicRoughnessTexture":{"index":2,"extensions":{"KHR_texture_transform":{"offset":[0,0],"scale":[0.1,1]}}}}},{"name":"MatMaterial (Instance)","pbrMetallicRoughness":{"metallicFactor":0,"roughnessFactor":0,"baseColorTexture":{"index":7,"extensions":{"KHR_texture_transform":{"offset":[0,0.6191232],"scale":[0.28169015,0.3808768]}}},"metallicRoughnessTexture":{"index":8,"extensions":{"KHR_texture_transform":{"offset":[0,0.6191232],"scale":[0.28169015,0.3808768]}}}},"normalTexture":{"index":6}},{"name":"Gold (Instance)","pbrMetallicRoughness":{"metallicFactor":0.452826,"roughnessFactor":0.3136269,"baseColorTexture":{"index":9,"extensions":{"KHR_texture_transform":{"offset":[0,-0.0752689838],"scale":[0.355222762,1.075269]}}},"metallicRoughnessTexture":{"index":10,"extensions":{"KHR_texture_transform":{"offset":[0,-0.0752689838],"scale":[0.355222762,1.075269]}}}}},{"name":"Gold (Instance)","pbrMetallicRoughness":{"metallicFactor":0.452826,"roughnessFactor":0.3136269,"baseColorTexture":{"index":11,"extensions":{"KHR_texture_transform":{"offset":[0,-0.0752689838],"scale":[0.355222762,1.075269]}}},"metallicRoughnessTexture":{"index":12,"extensions":{"KHR_texture_transform":{"offset":[0,-0.0752689838],"scale":[0.355222762,1.075269]}}}}},{"name":"Gold (Instance)","pbrMetallicRoughness":{"metallicFactor":0.452826,"roughnessFactor":0.3136269,"baseColorTexture":{"index":13,"extensions":{"KHR_texture_transform":{"offset":[0,-0.0752689838],"scale":[0.355222762,1.075269]}}},"metallicRoughnessTexture":{"index":14,"extensions":{"KHR_texture_transform":{"offset":[0,-0.0752689838],"scale":[0.355222762,1.075269]}}}}},{"name":"Gold (Instance)","pbrMetallicRoughness":{"metallicFactor":0.452826,"roughnessFactor":0.3136269,"baseColorTexture":{"index":15,"extensions":{"KHR_texture_transform":{"offset":[0,-0.0752689838],"scale":[0.355222762,1.075269]}}},"metallicRoughnessTexture":{"index":16,"extensions":{"KHR_texture_transform":{"offset":[0,-0.0752689838],"scale":[0.355222762,1.075269]}}}}}],"meshes":[{"name":"default","primitives":[{"attributes":{"POSITION":0,"NORMAL":1,"TANGENT":2,"TEXCOORD_0":3},"indices":4,"material":0}]},{"name":"Bevel","primitives":[{"attributes":{"POSITION":5,"NORMAL":6,"TEXCOORD_0":7},"indices":8,"material":1}]},{"name":"BottomMat","primitives":[{"attributes":{"POSITION":9,"NORMAL":10,"TEXCOORD_0":11},"indices":12,"material":2}]},{"name":"Bevel","primitives":[{"attributes":{"POSITION":13,"NORMAL":14,"TEXCOORD_0":15},"indices":16,"material":3}]},{"name":"Mat","primitives":[{"attributes":{"POSITION":17,"NORMAL":18,"TEXCOORD_0":19},"indices":20,"material":4}]},{"name":"Leg1","primitives":[{"attributes":{"POSITION":21,"NORMAL":22,"TANGENT":23,"TEXCOORD_0":24},"indices":25,"material":5}]},{"name":"Leg2","primitives":[{"attributes":{"POSITION":26,"NORMAL":27,"TANGENT":28,"TEXCOORD_0":29},"indices":30,"material":6}]},{"name":"Leg3","primitives":[{"attributes":{"POSITION":31,"NORMAL":32,"TANGENT":33,"TEXCOORD_0":34},"indices":35,"material":7}]},{"name":"Leg4","primitives":[{"attributes":{"POSITION":36,"NORMAL":37,"TANGENT":38,"TEXCOORD_0":39},"indices":40,"material":8}]}],"samplers":[{"wrapS":33648,"wrapT":33648}],"scene":0,"scenes":[{"nodes":[0,2,4,9]}],"textures":[{"source":0},{"source":1},{"source":2},{"source":3},{"source":4,"sampler":0},{"source":5,"sampler":0},{"source":6},{"source":7,"sampler":0},{"source":8,"sampler":0},{"source":9},{"source":10},{"source":11},{"source":12},{"source":13},{"source":14},{"source":15},{"source":16}]}